<svg width="1133" xmlns:xlink="http://www.w3.org/1999/xlink" viewBox="0 0 1133 804" xmlns="http://www.w3.org/2000/svg" xmlns:ev="http://www.w3.org/2001/xml-events" height="804"><style type="text/css"><![CDATA[
.st5 {fill:#1f6391;font-family:宋体;font-size:13.5pt}
.st2 {fill:#1f6391;font-family:宋体;font-size:7.5pt}
.st6 {fill:#aa7300;font-family:宋体;font-size:10.5pt}
.st7 {fill:#ffffff;font-family:宋体;font-size:10.5pt;font-weight:bold}
.st1 {fill:#ffffff;font-family:宋体;font-size:10.5pt}
.st3 {fill:#ffffff;font-family:宋体;font-size:7.5pt}
.st9 {fill:#ffffff;font-family:宋体;font-size:9pt}
.st4 {font-size:10.5pt}
.st8 {font-size:13.5pt}
]]></style><defs><filter id="filter1"><feGaussianBlur stdDeviation="1"/></filter></defs><g transform="translate(5,5)" id="page1"><rect x="0" width="1123" stroke="#808080" y="0" height="794" fill="#ffffff"/><path stroke-dasharray="2,5" stroke="#303030" d="M0,0L85,0L85,118L0,118L0,0z" stroke-width="2" transform="translate(525,365)" fill="none" id="shape1"/><g transform="translate(15,385)" id="shape2"><path stroke="#3498db" d="M0,0L75,0L75,33L0,33L0,0z" fill="#3498db"/><text class="st1"><tspan x="12" y="22.5">Redis库</tspan></text></g><g transform="translate(117.5,434)" id="shape3"><path stroke="#ee7c31" d="M0,0L75,0L75,33L0,33L0,0z" fill="#ee7c31"/><text class="st1"><tspan x="15" y="21">visited</tspan></text></g><g transform="translate(117.5,560.5)" id="shape4"><path stroke="#dd7195" d="M0,0L75,0L75,33L0,33L0,0z" fill="#dd7195"/><text class="st1"><tspan x="10" y="22.5">主题爬虫</tspan></text></g><g transform="translate(117.5,483.5)" id="shape5"><path stroke="#ee7c31" d="M0,0L75,0L75,33L0,33L0,0z" fill="#ee7c31"/><text class="st1"><tspan x="12" y="21">notvisit</tspan></text></g><g transform="matrix(0,-1,1,0,155.5,560.5)" id="shape6"><path stroke="#236ea1" d="M0,0L39.6,0" fill="none"/><path stroke-linecap="round" stroke="#236ea1" d="M44,0L38.8,-3C39.3,-2.1,39.6,-1.1,39.6,0C39.6,1.1,39.3,2.1,38.8,3L44,0" stroke-width="1" fill="#236ea1"/></g><g transform="translate(192.5,500.35)" id="shape7"><path stroke="#236ea1" d="M0,0L62.5,0L62.5,-49.5L4.4,-49.5" fill="none"/><path stroke-linecap="round" stroke="#236ea1" d="M0,-49.5L5.2,-46.5C4.7,-47.4,4.4,-48.4,4.4,-49.5C4.4,-50.6,4.7,-51.6,5.2,-52.5L0,-49.5" stroke-width="1" fill="#236ea1"/></g><g transform="translate(157,530)" id="shape8"><text class="st2"><tspan x="7" y="6.5">向notvisit队列</tspan><tspan x="5" y="20.5">插入新的专栏id</tspan></text></g><g transform="translate(199,482)" id="shape9"><text class="st2"><tspan x="6" y="11">详情爬取</tspan></text></g><g transform="matrix(1,-0,0,1,192.5,500.4)" id="shape10"><path stroke="#236ea1" d="M0,0L72.1,0" fill="none"/><path stroke-linecap="round" stroke="#236ea1" d="M76.5,0L71.3,-3C71.8,-2.1,72.1,-1.1,72.1,0C72.1,1.1,71.8,2.1,71.3,3L76.5,0" stroke-width="1" fill="#236ea1"/></g><g transform="translate(269,483.5)" id="shape11"><path stroke="#3498db" d="M0,0L94,0L94,33L0,33L0,0z" fill="#3498db"/><text class="st1"><tspan x="5" y="22.5">专栏文章列表</tspan></text></g><g transform="translate(381,483.5)" id="shape12"><path stroke="#3498db" d="M0,0L110,0L110,33L0,33L0,0z" fill="#3498db"/><text class="st1"><tspan x="6" y="22.5">文章详情页爬取</tspan></text></g><g transform="translate(363,500.35)" id="shape13"><path stroke="#236ea1" d="M0,0L13.6,0" fill="none"/><path stroke-linecap="round" stroke="#236ea1" d="M18,0L12.8,-3C13.3,-2.1,13.6,-1.1,13.6,0C13.6,1.1,13.3,2.1,12.8,3L18,0" stroke-width="1" fill="#236ea1"/></g><g transform="translate(530,367.5)" id="shape14"><path stroke="#527294" d="M0,0L75,0L75,33L0,33L0,0z" fill="#527294"/><text class="st1"><tspan x="31" y="21">id</tspan></text></g><g transform="translate(530,445)" id="shape15"><path stroke="#527294" d="M0,0L75,0L75,33L0,33L0,0z" fill="#527294"/><text class="st1"><tspan x="12" y="21">content</tspan></text></g><g transform="translate(530,405.5)" id="shape16"><path stroke="#527294" d="M0,0L75,0L75,33L0,33L0,0z" fill="#527294"/><text class="st1"><tspan x="28" y="21">url</tspan></text></g><g transform="translate(506,422.35)" id="shape17"><path stroke="#236ea1" d="M0,0L19.6,0" fill="none"/><path stroke-linecap="round" stroke="#236ea1" d="M24,0L18.8,-3C19.3,-2.1,19.6,-1.1,19.6,0C19.6,1.1,19.3,2.1,18.8,3L24,0" stroke-width="1" fill="#236ea1"/></g><g transform="translate(506,422.35)" id="shape18"><path stroke="#236ea1" d="M0,0L0,-38L19.6,-38" fill="none"/><path stroke-linecap="round" stroke="#236ea1" d="M24,-38L18.8,-41C19.3,-40.1,19.6,-39.1,19.6,-38C19.6,-36.9,19.3,-35.9,18.8,-35L24,-38" stroke-width="1" fill="#236ea1"/></g><g transform="translate(506,422.35)" id="shape19"><path stroke="#236ea1" d="M0,0L0,39.5L19.6,39.5" fill="none"/><path stroke-linecap="round" stroke="#236ea1" d="M24,39.5L18.8,36.5C19.3,37.4,19.6,38.4,19.6,39.5C19.6,40.6,19.3,41.6,18.8,42.5L24,39.5" stroke-width="1" fill="#236ea1"/></g><g transform="translate(671,445)" id="shape20"><path stroke="#2da2bf" d="M0,0L66,0L66,33L0,33L0,0z" fill="#2da2bf"/><text class="st3"><tspan x="5" y="22.5" class="st4">清洗结果</tspan></text></g><g transform="matrix(1,-0,0,1,605,461.9)" id="shape21"><path stroke="#236ea1" d="M0,0L61.6,0" fill="none"/><path stroke-linecap="round" stroke="#236ea1" d="M66,0L60.8,-3C61.3,-2.1,61.6,-1.1,61.6,0C61.6,1.1,61.3,2.1,60.8,3L66,0" stroke-width="1" fill="#236ea1"/></g><g transform="translate(610,436)" id="shape22"><text class="st2"><tspan x="7" y="6.5">去掉html</tspan><tspan x="8" y="20.5">相关元素</tspan></text></g><g transform="translate(117.5,353)" id="shape23"><path stroke="#ee7c31" d="M0,0L102.5,0L102.5,33L0,33L0,0z" fill="#ee7c31"/><text class="st1"><tspan x="6.3" y="22.5">word有序集合</tspan></text></g><g transform="translate(117.5,245)" id="shape24"><path stroke="#ee7c31" d="M0,0L102.5,0L102.5,33L0,33L0,0z" fill="#ee7c31"/><text class="st1"><tspan x="12.3" y="21">article hash</tspan></text></g><g transform="translate(871,445)" id="shape25"><path stroke="#8d9cb1" d="M0,0L133,0L133,33L0,33L0,0z" fill="#8d9cb1"/><text class="st1"><tspan x="5" y="22.5">word2，id, score2</tspan></text></g><g transform="translate(737,461.85)" id="shape26"><path stroke="#236ea1" d="M0,0L129.6,0" fill="none"/><path stroke-linecap="round" stroke="#236ea1" d="M134,0L128.8,-3C129.3,-2.1,129.6,-1.1,129.6,0C129.6,1.1,129.3,2.1,128.8,3L134,0" stroke-width="1" fill="#236ea1"/></g><g transform="translate(804,442)" id="shape27"><text class="st2"><tspan x="18" y="13.5">分词</tspan></text></g><path stroke-dasharray="2,5" stroke="#303030" d="M0,0L85,0L85,118L0,118L0,0z" stroke-width="2" transform="translate(525,498)" fill="none" id="shape28"/><g transform="translate(530,500.5)" id="shape29"><path stroke="#527294" d="M0,0L75,0L75,33L0,33L0,0z" fill="#527294"/><text class="st1"><tspan x="31" y="21">id</tspan></text></g><g transform="translate(530,578)" id="shape30"><path stroke="#527294" d="M0,0L75,0L75,33L0,33L0,0z" fill="#527294"/><text class="st1"><tspan x="12" y="21">content</tspan></text></g><g transform="translate(530,538.5)" id="shape31"><path stroke="#527294" d="M0,0L75,0L75,33L0,33L0,0z" fill="#527294"/><text class="st1"><tspan x="28" y="21">url</tspan></text></g><g transform="translate(506,555.35)" id="shape32"><path stroke="#236ea1" d="M0,0L19.6,0" fill="none"/><path stroke-linecap="round" stroke="#236ea1" d="M24,0L18.8,-3C19.3,-2.1,19.6,-1.1,19.6,0C19.6,1.1,19.3,2.1,18.8,3L24,0" stroke-width="1" fill="#236ea1"/></g><g transform="translate(506,555.35)" id="shape33"><path stroke="#236ea1" d="M0,0L0,-38L19.6,-38" fill="none"/><path stroke-linecap="round" stroke="#236ea1" d="M24,-38L18.8,-41C19.3,-40.1,19.6,-39.1,19.6,-38C19.6,-36.9,19.3,-35.9,18.8,-35L24,-38" stroke-width="1" fill="#236ea1"/></g><g transform="translate(506,555.35)" id="shape34"><path stroke="#236ea1" d="M0,0L0,39.5L19.6,39.5" fill="none"/><path stroke-linecap="round" stroke="#236ea1" d="M24,39.5L18.8,36.5C19.3,37.4,19.6,38.4,19.6,39.5C19.6,40.6,19.3,41.6,18.8,42.5L24,39.5" stroke-width="1" fill="#236ea1"/></g><g transform="translate(671,578)" id="shape35"><path stroke="#2da2bf" d="M0,0L66,0L66,33L0,33L0,0z" fill="#2da2bf"/><text class="st3"><tspan x="5" y="22.5" class="st4">清洗结果</tspan></text></g><g transform="translate(605,594.85)" id="shape36"><path stroke="#236ea1" d="M0,0L61.6,0" fill="none"/><path stroke-linecap="round" stroke="#236ea1" d="M66,0L60.8,-3C61.3,-2.1,61.6,-1.1,61.6,0C61.6,1.1,61.3,2.1,60.8,3L66,0" stroke-width="1" fill="#236ea1"/></g><g transform="translate(610,569)" id="shape37"><text class="st2"><tspan x="7" y="6.5">去掉html</tspan><tspan x="8" y="20.5">相关元素</tspan></text></g><g transform="translate(871,578)" id="shape38"><path stroke="#8d9cb1" d="M0,0L133,0L133,33L0,33L0,0z" fill="#8d9cb1"/><text class="st1"><tspan x="5" y="22.5">wordn，id, scoren</tspan></text></g><g transform="matrix(1,-0,0,1,737,594.9)" id="shape39"><path stroke="#236ea1" d="M0,0L129.6,0" fill="none"/><path stroke-linecap="round" stroke="#236ea1" d="M134,0L128.8,-3C129.3,-2.1,129.6,-1.1,129.6,0C129.6,1.1,129.3,2.1,128.8,3L134,0" stroke-width="1" fill="#236ea1"/></g><g transform="translate(822,575)" id="shape40"><text class="st2"><tspan x="18" y="13.5">分词</tspan></text></g><path stroke="#236ea1" d="M0,0L15,0L15,-78" transform="translate(491,500.35)" fill="none" id="shape41"/><path stroke="#236ea1" d="M0,0L15,0L15,17" transform="translate(491,500.35)" fill="none" id="shape42"/><g transform="translate(871,405.5)" id="shape43"><path stroke="#8d9cb1" d="M0,0L133,0L133,33L0,33L0,0z" fill="#8d9cb1"/><text class="st1"><tspan x="5" y="22.5">word1，id, score1</tspan></text></g><g transform="translate(849,461)" id="shape44"><path stroke="#236ea1" d="M0,0L0,-38.6L17.6,-38.6" fill="none"/><path stroke-linecap="round" stroke="#236ea1" d="M22,-38.6L16.8,-41.6C17.3,-40.8,17.6,-39.7,17.6,-38.6C17.6,-37.6,17.3,-36.5,16.8,-35.6L22,-38.6" stroke-width="1" fill="#236ea1"/></g><g transform="translate(849,461)" id="shape45"><path stroke="#236ea1" d="M0,0L0,39.4L17.6,39.4" fill="none"/><path stroke-linecap="round" stroke="#236ea1" d="M22,39.4L16.8,36.4C17.3,37.2,17.6,38.3,17.6,39.4C17.6,40.4,17.3,41.5,16.8,42.4L22,39.4" stroke-width="1" fill="#236ea1"/></g><path stroke-dasharray="2,5" stroke="#303030" d="M0,0L140.5,0L140.5,213L0,213L0,0z" stroke-width="2" transform="translate(868.5,404)" fill="none" id="shape46"/><g transform="translate(925,536)" id="shape47"><text class="st5"><tspan x="5" y="15.5">...</tspan></text></g><g transform="translate(871,483.5)" id="shape48"><path stroke="#8d9cb1" d="M0,0L133,0L133,33L0,33L0,0z" fill="#8d9cb1"/><text class="st1"><tspan x="5" y="22.5">word3，id, score3</tspan></text></g><g transform="translate(1009,511.28)" id="shape49"><path stroke="#236ea1" d="M0,0L9,0L9,-141.4L-784.6,-141.4" fill="none"/><path stroke-linecap="round" stroke="#236ea1" d="M-789,-141.4L-783.8,-138.4C-784.3,-139.3,-784.6,-140.3,-784.6,-141.4C-784.6,-142.5,-784.3,-143.5,-783.8,-144.4L-789,-141.4" stroke-width="1" fill="#236ea1"/></g><g transform="translate(740,508)" id="shape50"><path stroke="#ffc37c" d="M0,0L83,0L83,23L0,23L0,0z" fill="#fff2e7"/><text class="st6"><tspan x="5" y="16">id, content</tspan></text></g><g transform="translate(739,631.35)" id="shape51"><path stroke="#ffc37c" d="M0,0L83,0L83,23L0,23L0,0z" fill="#fff2e7"/><text class="st6"><tspan x="5" y="16">id, content</tspan></text></g><path stroke-dasharray="2,5" stroke="#303030" d="M0,0L85,0L85,156L0,156L0,0z" stroke-width="2" transform="translate(739,503)" fill="none" id="shape52"/><g transform="translate(768.5,566.5)" id="shape53"><text class="st5"><tspan x="5" y="15.5">...</tspan></text></g><g transform="translate(781.93,503)" id="shape54"><path stroke="#236ea1" d="M0,0L0,-241.1L-557.5,-241.1" fill="none"/><path stroke-linecap="round" stroke="#236ea1" d="M-561.9,-241.1L-556.7,-238.1C-557.2,-239,-557.5,-240.1,-557.5,-241.1C-557.5,-242.2,-557.2,-243.3,-556.7,-244.1L-561.9,-241.1" stroke-width="1" fill="#236ea1"/></g><g transform="translate(90,401.85)" id="shape55"><path stroke="#236ea1" d="M0,0L11.5,0L11.5,-140L23.1,-140" fill="none"/><path stroke-linecap="round" stroke="#236ea1" d="M27.5,-140L22.3,-143C22.8,-142.1,23.1,-141.1,23.1,-140C23.1,-138.9,22.8,-137.9,22.3,-137L27.5,-140" stroke-width="1" fill="#236ea1"/></g><g transform="translate(90,401.85)" id="shape56"><path stroke="#236ea1" d="M0,0L11.5,0L11.5,-32L23.1,-32" fill="none"/><path stroke-linecap="round" stroke="#236ea1" d="M27.5,-32L22.3,-35C22.8,-34.1,23.1,-33.1,23.1,-32C23.1,-30.9,22.8,-29.9,22.3,-29L27.5,-32" stroke-width="1" fill="#236ea1"/></g><g transform="translate(90,401.85)" id="shape57"><path stroke="#236ea1" d="M0,0L11.5,0L11.5,49L23.1,49" fill="none"/><path stroke-linecap="round" stroke="#236ea1" d="M27.5,49L22.3,46C22.8,46.9,23.1,47.9,23.1,49C23.1,50.1,22.8,51.1,22.3,52L27.5,49" stroke-width="1" fill="#236ea1"/></g><g transform="translate(90,401.85)" id="shape58"><path stroke="#236ea1" d="M0,0L11.5,0L11.5,98.5L23.1,98.5" fill="none"/><path stroke-linecap="round" stroke="#236ea1" d="M27.5,98.5L22.3,95.5C22.8,96.4,23.1,97.4,23.1,98.5C23.1,99.6,22.8,100.6,22.3,101.5L27.5,98.5" stroke-width="1" fill="#236ea1"/></g><g transform="translate(117.5,149.5)" id="shape59"><path stroke="#ffc37c" d="M0,0L97.5,0L97.5,33L0,33L0,0z" fill="#ffc37c"/><text class="st1"><tspan x="21.3" y="22.5">待查文本</tspan></text></g><g transform="translate(237.25,105)" id="shape60"><path fill-opacity="0.2" d="M1,1L110.8,1L110.8,34L1,34L1,1z" filter="url(#filter1)" fill="#000000"/><path stroke="#118972" d="M0,0L109.8,0L109.8,33L0,33L0,0z" fill="#118972"/><text class="st7"><tspan x="6.4" y="21">word1, score1</tspan></text></g><g transform="translate(237.25,140.5)" id="shape61"><path fill-opacity="0.2" d="M1,1L110.8,1L110.8,34L1,34L1,1z" filter="url(#filter1)" fill="#000000"/><path stroke="#118972" d="M0,0L109.8,0L109.8,33L0,33L0,0z" fill="#118972"/><text class="st7"><tspan x="6.4" y="21">word2, score2</tspan></text></g><g transform="translate(237.25,197.5)" id="shape62"><path fill-opacity="0.2" d="M1,1L110.8,1L110.8,34L1,34L1,1z" filter="url(#filter1)" fill="#000000"/><path stroke="#118972" d="M0,0L109.8,0L109.8,33L0,33L0,0z" fill="#118972"/><text class="st7"><tspan x="6.4" y="21">wordn, scoren</tspan></text></g><g transform="translate(278,171.5)" id="shape63"><text class="st5"><tspan x="5" y="15.5">...</tspan></text></g><path stroke-dasharray="2,5" stroke="#303030" d="M0,0L109.8,0L109.8,127L0,127L0,0z" stroke-width="2" transform="translate(237.25,102)" fill="none" id="shape64"/><g transform="matrix(1,-0.02,0.02,1,215,166.4)" id="shape65"><path stroke="#236ea1" d="M0,0L17.9,0" fill="none"/><path stroke-linecap="round" stroke="#236ea1" d="M22.3,0L17.1,-3C17.6,-2.1,17.9,-1.1,17.9,0C17.9,1.1,17.6,2.1,17.1,3L22.3,0" stroke-width="1" fill="#236ea1"/></g><g transform="translate(347,165.96)" id="shape66"><path stroke="#236ea1" d="M0,0L16,0L16,155L-177.6,155L-177.6,182.6" fill="none"/><path stroke-linecap="round" stroke="#236ea1" d="M-177.6,187L-174.6,181.8C-175.4,182.4,-176.5,182.6,-177.6,182.6C-178.7,182.6,-179.7,182.4,-180.6,181.8L-177.6,187" stroke-width="1" fill="#236ea1"/></g><g transform="translate(381,205)" id="shape67"><text class="st2"><tspan x="9" y="9">根据分词结果查询对应的文</tspan><tspan x="9" y="23">章及该词在文章中的重要度</tspan></text></g><g transform="translate(584,105)" id="shape68"><path fill-opacity="0.2" d="M1,1L147,1L147,34L1,34L1,1z" filter="url(#filter1)" fill="#000000"/><path stroke="#118972" d="M0,0L146,0L146,33L0,33L0,0z" fill="#92d050"/><text class="st7"><tspan x="25" y="21">word1, score1</tspan></text></g><g transform="translate(584,149.11)" id="shape69"><path fill-opacity="0.2" d="M1,1L147,1L147,98.9L1,98.9L1,1z" filter="url(#filter1)" fill="#000000"/><path stroke="#118972" d="M0,0L146,0L146,97.9L0,97.9L0,0z" fill="#92d050"/><text class="st7"><tspan x="4" y="17">word1   ->   id1, s1</tspan><tspan x="4" y="34">                    id2, s2</tspan><tspan x="4" y="51">                    id3, s3</tspan><tspan x="4" y="68">                    id4, s4</tspan><tspan x="4" y="89"> </tspan><tspan class="st8">...</tspan></text></g><path stroke-dasharray="2,5" stroke="#303030" d="M0,0L146.9,0L146.9,142L0,142L0,0z" stroke-width="2" transform="translate(583.13,105)" fill="none" id="shape70"/><g transform="translate(362,165.96)" id="shape71"><path stroke="#236ea1" d="M0,0L217.6,0" fill="none"/><path stroke-linecap="round" stroke="#236ea1" d="M222,0L216.8,-3C217.3,-2.1,217.6,-1.1,217.6,0C217.6,1.1,217.3,2.1,216.8,3L222,0" stroke-width="1" fill="#236ea1"/></g><path stroke-dasharray="2,5" stroke="#303030" d="M0,0L180.4,0L180.4,98L0,98L0,0z" stroke-width="2" transform="translate(775.56,134)" fill="none" id="shape72"/><g transform="translate(778.56,138)" id="shape73"><path stroke="#3498db" d="M0,0L173.4,0L173.4,80L0,80L0,0z" fill="#0070c0"/><text class="st9"><tspan x="6.2" y="13.5">word1   ->   id1, s1*score1</tspan><tspan x="6.2" y="28.5">                    id2, s2*score2</tspan><tspan x="6.2" y="43.5">                    id3, s3*score3</tspan><tspan x="6.2" y="58.5">                    id4, s4*score4</tspan><tspan x="35.2" y="73.5">                        ...</tspan></text></g><g transform="translate(843,213)" id="shape74"><text class="st5"><tspan x="15" y="13">...</tspan></text></g><g transform="translate(730,161)" id="shape75"><path stroke="#236ea1" d="M0,0L42.6,0" fill="none"/><path stroke-linecap="round" stroke="#236ea1" d="M47,0L41.8,-3C42.3,-2.1,42.6,-1.1,42.6,0C42.6,1.1,42.3,2.1,41.8,3L47,0" stroke-width="1" fill="#236ea1"/></g><g transform="matrix(1,-0,0,1,956,183.4)" id="shape76"><path stroke="#236ea1" d="M0,0L57.6,0" fill="none"/><path stroke-linecap="round" stroke="#236ea1" d="M62,0L56.8,-3C57.3,-2.1,57.6,-1.1,57.6,0C57.6,1.1,57.3,2.1,56.8,3L62,0" stroke-width="1" fill="#236ea1"/></g><g transform="translate(953,144)" id="shape77"><text class="st2"><tspan x="6" y="19.7">以id为维度</tspan><tspan x="11" y="33.7">进行聚合</tspan></text></g><g transform="translate(955,189.38)" id="shape78"><text class="st2"><tspan x="6" y="5.7">对相同id的</tspan><tspan x="6" y="19.7">分数进行叠</tspan><tspan x="6" y="33.7">加，按分数</tspan><tspan x="11" y="47.7">降序排序</tspan></text></g><g transform="translate(1018,166.51)" id="shape79"><path fill-opacity="0.2" d="M1,1L96,1L96,34L1,34L1,1z" filter="url(#filter1)" fill="#000000"/><path stroke="#118972" d="M0,0L95,0L95,33L0,33L0,0z" fill="#af5921"/><text class="st7"><tspan x="6" y="22.5">遍历聚合列表</tspan></text></g><g transform="translate(1061,235.3)" id="shape80"><text class="st2"><tspan x="6" y="4">根据id查</tspan><tspan x="6" y="18">询出对应</tspan><tspan x="11" y="32">的文章</tspan></text></g><g transform="translate(1042,283)" id="shape81"><path fill-opacity="0.2" d="M1,1L48,1L48,48L1,48L1,1z" filter="url(#filter1)" fill="#000000"/><path stroke="#118972" d="M0,0L47,0L47,47L0,47L0,0z" fill="#af5921"/><text class="st7"><tspan x="10" y="19.5">结果</tspan><tspan x="10" y="39.5">展示</tspan></text></g><g transform="matrix(-0.01,1,-1,-0.01,1066.1,219.3)" id="shape82"><path stroke="#236ea1" d="M0,0L59.3,0" fill="none"/><path stroke-linecap="round" stroke="#236ea1" d="M63.7,0L58.5,-3C59,-2.1,59.3,-1.1,59.3,0C59.3,1.1,59,2.1,58.5,3L63.7,0" stroke-width="1" fill="#236ea1"/></g><g transform="translate(704.44,478)" id="shape83"><path stroke="#236ea1" d="M0,0L0,41.7L31.2,41.7" fill="none"/><path stroke-linecap="round" stroke="#236ea1" d="M35.6,41.7L30.4,38.7C30.9,39.6,31.2,40.7,31.2,41.7C31.2,42.8,30.9,43.9,30.4,44.7L35.6,41.7" stroke-width="1" fill="#236ea1"/></g><g transform="translate(704.44,611)" id="shape84"><path stroke="#236ea1" d="M0,0L0,32.1L30.2,32.1" fill="none"/><path stroke-linecap="round" stroke="#236ea1" d="M34.6,32.1L29.4,29.1C29.9,30,30.2,31,30.2,32.1C30.2,33.2,29.9,34.2,29.4,35.1L34.6,32.1" stroke-width="1" fill="#236ea1"/></g><g transform="translate(1066.13,199.51)" id="shape85"><path stroke="#236ea1" d="M0,0L0,62.3L-841.7,62.3" fill="none"/><path stroke-linecap="round" stroke="#236ea1" d="M-846.1,62.3L-840.9,65.3C-841.4,64.5,-841.7,63.4,-841.7,62.3C-841.7,61.3,-841.4,60.2,-840.9,59.3L-846.1,62.3" stroke-width="1" fill="#236ea1"/></g></g></svg>